<svg width="24" height="24" viewBox="0 0 24 24" fill="none" xmlns="http://www.w3.org/2000/svg">
<path d="M8.36695 0H15.6326C18.0422 0 19.2464 0 20.5434 0.409922C21.9595 0.925313 23.0747 2.0407 23.5898 3.45656C24 4.75359 24 5.95805 24 8.36742V15.6326C24 18.042 24 19.2464 23.5898 20.5434C23.0747 21.9595 21.9593 23.0747 20.5434 23.5898C19.2466 24 18.0422 24 15.6326 24H8.36695C5.95781 24 4.75336 24 3.45656 23.5898C2.04047 23.0747 0.925313 21.9593 0.410156 20.5434C0 19.2464 0 18.042 0 15.6326V8.36742C0 5.95828 0 4.75383 0.410156 3.45656C0.925313 2.0407 2.0407 0.925313 3.45656 0.409922C4.75359 0 5.95781 0 8.36695 0Z" fill="#FDD900"/>
<path d="M19.0779 2.7705H12.0612C6.96914 2.7705 2.75508 6.93675 2.77055 12.0288C2.78602 17.1035 6.89672 21.2142 11.9714 21.2296C17.0634 21.2451 21.2297 17.031 21.2297 11.939V4.92206C21.2297 3.73378 20.2664 2.77026 19.0779 2.77026V2.7705Z" fill="#001E61"/>
<path d="M12.2025 14.7144C10.7032 14.7144 9.488 13.4992 9.488 11.9999C9.488 10.5006 10.7035 9.28537 12.2025 9.28537C13.3336 9.28537 14.3023 9.97748 14.7103 10.9611C15.1306 10.787 16.0423 10.4094 16.7173 10.1298C15.983 8.35935 14.2386 7.11365 12.2025 7.11365C9.50394 7.11365 7.31628 9.3013 7.31628 11.9999C7.31628 14.6985 9.50394 16.8861 12.2025 16.8861C14.2386 16.8861 15.9832 15.6404 16.7173 13.87L14.7103 13.0386C14.3025 14.0223 13.3336 14.7144 12.2025 14.7144Z" fill="#FDD900"/>
<path d="M20.0215 5.43328H18.5667V3.97852H17.3217V5.43328H15.8669V6.67828H17.3217V8.13281H18.5667V6.67828H20.0215V5.43328Z" fill="#FDD900"/>
</svg>
