<svg width="102" height="16" viewBox="0 0 102 16" fill="none" xmlns="http://www.w3.org/2000/svg">
<rect y="0.581787" width="102" height="15" rx="7.5" fill="#FFDE00"/>
<path d="M6 8.26512C6 8.57142 6.08782 8.87085 6.25238 9.1256C6.41693 9.38036 6.65084 9.57903 6.92458 9.69653C7.19831 9.81403 7.4996 9.84509 7.7904 9.78579C8.08121 9.72649 8.34849 9.57949 8.55851 9.36335C8.76853 9.1472 8.91187 8.87161 8.97043 8.57135C9.02899 8.2711 9.00016 7.95964 8.88756 7.67631C8.77496 7.39297 8.58365 7.15046 8.33778 6.97939C8.0919 6.80832 7.80249 6.71636 7.50608 6.71512C7.30925 6.71512 7.11434 6.75523 6.93252 6.83317C6.7507 6.9111 6.58554 7.02532 6.4465 7.16929C6.30745 7.31327 6.19725 7.48416 6.1222 7.6722C6.04715 7.86024 6.00873 8.06172 6.00913 8.26512" fill="#1D2D5F"/>
<path d="M7.71998 11.4278C7.14693 11.4259 6.58513 11.2695 6.09439 10.9753C5.60364 10.6811 5.20231 10.2601 4.93312 9.75704C4.66393 9.25402 4.53697 8.68784 4.56574 8.11876C4.59451 7.54968 4.77794 6.99901 5.09651 6.52537C5.41507 6.05173 5.85684 5.67285 6.37479 5.42906C6.89274 5.18528 7.46748 5.08571 8.03783 5.14096C8.60817 5.19622 9.15278 5.40422 9.61366 5.74283C10.0745 6.08144 10.4345 6.53799 10.6551 7.06386L13 6.09892C12.4957 4.88256 11.5825 3.87786 10.4164 3.25621C9.25022 2.63456 7.90326 2.43448 6.6053 2.69008C5.30733 2.94569 4.13876 3.64115 3.29892 4.65784C2.45908 5.67452 2 6.94944 2 8.26512C2 9.5808 2.45908 10.8557 3.29892 11.8724C4.13876 12.8891 5.30733 13.5846 6.6053 13.8402C7.90326 14.0958 9.25022 13.8957 10.4164 13.274C11.5825 12.6524 12.4957 11.6477 13 10.4313L10.6551 9.46638C10.4173 10.0464 10.0111 10.5427 9.48829 10.8921C8.9655 11.2414 8.34986 11.4279 7.71998 11.4278Z" fill="#1D2D5F"/>
<path d="M22.8068 6.94539H21.2045C21.1932 6.81281 21.1629 6.69255 21.1136 6.5846C21.0663 6.47664 21 6.38384 20.9148 6.30619C20.8314 6.22664 20.7301 6.16603 20.6108 6.12437C20.4915 6.08081 20.3561 6.05903 20.2045 6.05903C19.9394 6.05903 19.715 6.12342 19.5312 6.25221C19.3494 6.381 19.2112 6.56566 19.1165 6.80619C19.0237 7.04672 18.9773 7.33554 18.9773 7.67266C18.9773 8.02872 19.0246 8.32702 19.1193 8.56755C19.2159 8.80619 19.3551 8.98611 19.5369 9.10732C19.7187 9.22664 19.9375 9.2863 20.1932 9.2863C20.339 9.2863 20.4697 9.26831 20.5852 9.23232C20.7007 9.19444 20.8011 9.14047 20.8864 9.07039C20.9716 9.00031 21.0407 8.91603 21.0937 8.81755C21.1487 8.71717 21.1856 8.60448 21.2045 8.47948L22.8068 8.49085C22.7879 8.73706 22.7187 8.988 22.5994 9.24369C22.4801 9.49747 22.3106 9.73232 22.0909 9.94823C21.8731 10.1622 21.6032 10.3346 21.2812 10.4653C20.9593 10.596 20.5852 10.6613 20.1591 10.6613C19.625 10.6613 19.1458 10.5467 18.7216 10.3175C18.2992 10.0884 17.965 9.75126 17.7187 9.30619C17.4744 8.86111 17.3523 8.3166 17.3523 7.67266C17.3523 7.02494 17.4773 6.47948 17.7273 6.0363C17.9773 5.59122 18.3144 5.25505 18.7386 5.02778C19.1629 4.79861 19.6364 4.68403 20.1591 4.68403C20.5265 4.68403 20.8646 4.73422 21.1733 4.83459C21.482 4.93497 21.7528 5.08175 21.9858 5.27494C22.2187 5.46622 22.4062 5.70202 22.5483 5.98232C22.6903 6.26263 22.7765 6.58365 22.8068 6.94539Z" fill="#1D2D5F"/>
<path d="M25.1143 8.12721V10.5818H23.5462V4.76357H25.0575V7.04766H25.103C25.2015 6.76925 25.3653 6.5524 25.5945 6.3971C25.8236 6.2399 26.0992 6.1613 26.4212 6.1613C26.7299 6.1613 26.9979 6.23137 27.2251 6.37153C27.4543 6.51168 27.6314 6.70486 27.7564 6.95107C27.8833 7.19728 27.9458 7.47948 27.9439 7.79766V10.5818H26.3757V8.12721C26.3776 7.9113 26.3236 7.74179 26.2138 7.61869C26.1058 7.49558 25.9515 7.43403 25.7507 7.43403C25.6238 7.43403 25.5121 7.46244 25.4155 7.51925C25.3208 7.57418 25.2469 7.65372 25.1939 7.75789C25.1427 7.86016 25.1162 7.98327 25.1143 8.12721Z" fill="#1D2D5F"/>
<path d="M33.7862 5.94539H34.5589C34.557 6.30145 34.5002 6.60069 34.3885 6.84312C34.2786 7.08365 34.0949 7.26547 33.8374 7.38857C33.5817 7.50978 33.2351 7.57039 32.7976 7.57039V6.97948C33.0798 6.97948 33.2909 6.94066 33.4311 6.863C33.5713 6.78535 33.665 6.66982 33.7124 6.51641C33.7597 6.363 33.7843 6.17266 33.7862 5.94539ZM31.593 8.67266V6.21812H33.1612V10.5818H31.6726V9.75221H31.6271C31.5324 10.0306 31.3667 10.2484 31.13 10.4056C30.8932 10.5609 30.612 10.6386 30.2862 10.6386C29.9813 10.6386 29.7142 10.5685 29.4851 10.4283C29.2578 10.2882 29.0807 10.095 28.9538 9.8488C28.8288 9.60259 28.7654 9.32039 28.7635 9.00221V6.21812H30.3317V8.67266C30.3336 8.88857 30.3885 9.05808 30.4964 9.18119C30.6063 9.30429 30.7597 9.36585 30.9567 9.36585C31.0873 9.36585 31.2 9.33838 31.2947 9.28346C31.3913 9.22664 31.4652 9.14709 31.5163 9.04482C31.5694 8.94066 31.5949 8.8166 31.593 8.67266ZM30.4453 5.67266L30.9908 4.39994H32.3317L31.4794 5.67266H30.4453Z" fill="#1D2D5F"/>
<path d="M36.419 8.12721V10.5818H34.8508V6.21812H36.3395V7.04766H36.3849C36.4796 6.77115 36.6463 6.55429 36.8849 6.3971C37.1255 6.2399 37.4058 6.1613 37.7258 6.1613C38.0346 6.1613 38.3025 6.23232 38.5298 6.37437C38.759 6.51452 38.9361 6.7077 39.0611 6.95391C39.188 7.20013 39.2505 7.48138 39.2486 7.79766V10.5818H37.6804V8.12721C37.6823 7.9113 37.6274 7.74179 37.5156 7.61869C37.4058 7.49558 37.2524 7.43403 37.0554 7.43403C36.9266 7.43403 36.8139 7.46244 36.7173 7.51925C36.6226 7.57418 36.5497 7.65372 36.4986 7.75789C36.4474 7.86016 36.4209 7.98327 36.419 8.12721Z" fill="#1D2D5F"/>
<path d="M42.125 12.309C41.6875 12.309 41.3125 12.2465 41 12.1215C40.6894 11.9984 40.4479 11.828 40.2756 11.6102C40.1051 11.3943 40.0095 11.1461 39.9886 10.8658H41.5C41.5151 10.9586 41.553 11.0335 41.6136 11.0903C41.6742 11.1471 41.7519 11.1878 41.8466 11.2124C41.9432 11.239 42.0511 11.2522 42.1704 11.2522C42.3731 11.2522 42.5407 11.203 42.6733 11.1045C42.8078 11.006 42.875 10.828 42.875 10.5704V9.83175H42.8295C42.7727 9.97948 42.6856 10.1054 42.5682 10.2096C42.4508 10.3119 42.3097 10.3905 42.1449 10.4454C41.9801 10.4984 41.7992 10.5249 41.6023 10.5249C41.2917 10.5249 41.0057 10.453 40.7443 10.309C40.4848 10.1651 40.2765 9.93687 40.1193 9.62437C39.964 9.31187 39.8864 8.90372 39.8864 8.39994C39.8864 7.87342 39.9678 7.44539 40.1307 7.11585C40.2954 6.7863 40.5076 6.54482 40.767 6.39141C41.0284 6.238 41.303 6.1613 41.5909 6.1613C41.8068 6.1613 41.9962 6.19918 42.1591 6.27494C42.322 6.3488 42.4583 6.44823 42.5682 6.57323C42.678 6.69634 42.7614 6.83175 42.8182 6.97948H42.8523V6.21812H44.4204V10.5704C44.4204 10.9397 44.3248 11.2532 44.1335 11.5107C43.9441 11.7702 43.6771 11.9681 43.3324 12.1045C42.9877 12.2408 42.5852 12.309 42.125 12.309ZM42.1818 9.4113C42.3258 9.4113 42.4489 9.37153 42.5511 9.29198C42.6553 9.21054 42.7348 9.09501 42.7898 8.94539C42.8466 8.79388 42.875 8.61206 42.875 8.39994C42.875 8.18403 42.8466 7.99937 42.7898 7.84596C42.7348 7.69066 42.6553 7.57228 42.5511 7.49085C42.4489 7.40751 42.3258 7.36585 42.1818 7.36585C42.0379 7.36585 41.9148 7.40751 41.8125 7.49085C41.7121 7.57228 41.6345 7.69066 41.5795 7.84596C41.5265 7.99937 41.5 8.18403 41.5 8.39994C41.5 8.61585 41.5265 8.79956 41.5795 8.95107C41.6345 9.10069 41.7121 9.21528 41.8125 9.29482C41.9148 9.37247 42.0379 9.4113 42.1818 9.4113Z" fill="#1D2D5F"/>
<path d="M48.38 8.12721V10.5818H46.8118V6.21812H48.3004V7.04766H48.3459C48.4406 6.77115 48.6072 6.55429 48.8459 6.3971C49.0864 6.2399 49.3667 6.1613 49.6868 6.1613C49.9955 6.1613 50.2635 6.23232 50.4908 6.37437C50.7199 6.51452 50.897 6.7077 51.022 6.95391C51.1489 7.20013 51.2114 7.48138 51.2095 7.79766V10.5818H49.6413V8.12721C49.6432 7.9113 49.5883 7.74179 49.4766 7.61869C49.3667 7.49558 49.2133 7.43403 49.0163 7.43403C48.8875 7.43403 48.7748 7.46244 48.6783 7.51925C48.5836 7.57418 48.5106 7.65372 48.4595 7.75789C48.4084 7.86016 48.3819 7.98327 48.38 8.12721Z" fill="#1D2D5F"/>
<path d="M53.5518 8.12721V10.5818H51.9837V4.76357H53.495V7.04766H53.5405C53.639 6.76925 53.8028 6.5524 54.032 6.3971C54.2611 6.2399 54.5367 6.1613 54.8587 6.1613C55.1674 6.1613 55.4354 6.23137 55.6626 6.37153C55.8918 6.51168 56.0689 6.70486 56.1939 6.95107C56.3208 7.19728 56.3833 7.47948 56.3814 7.79766V10.5818H54.8132V8.12721C54.8151 7.9113 54.7611 7.74179 54.6513 7.61869C54.5433 7.49558 54.389 7.43403 54.1882 7.43403C54.0613 7.43403 53.9496 7.46244 53.853 7.51925C53.7583 7.57418 53.6844 7.65372 53.6314 7.75789C53.5802 7.86016 53.5537 7.98327 53.5518 8.12721Z" fill="#1D2D5F"/>
<path d="M58.3714 10.6499C58.093 10.6499 57.8468 10.6045 57.6328 10.5136C57.4207 10.4208 57.254 10.2806 57.1328 10.0931C57.0116 9.90562 56.951 9.66698 56.951 9.37721C56.951 9.13857 56.9917 8.93497 57.0731 8.76641C57.1546 8.59596 57.2682 8.45675 57.4141 8.3488C57.5599 8.24085 57.7294 8.15846 57.9226 8.10164C58.1177 8.04482 58.3279 8.00789 58.5533 7.99085C58.7976 7.97191 58.9936 7.94918 59.1413 7.92266C59.2909 7.89425 59.3989 7.85543 59.4652 7.80619C59.5315 7.75505 59.5646 7.68781 59.5646 7.60448V7.59312C59.5646 7.47948 59.5211 7.39236 59.4339 7.33175C59.3468 7.27115 59.2351 7.24085 59.0987 7.24085C58.9491 7.24085 58.8269 7.27399 58.7322 7.34028C58.6394 7.40467 58.5836 7.5041 58.5646 7.63857H57.1214C57.1404 7.37342 57.2247 7.1291 57.3743 6.90562C57.5258 6.68024 57.7464 6.50031 58.0362 6.36585C58.326 6.22948 58.6877 6.1613 59.1214 6.1613C59.4339 6.1613 59.7142 6.19823 59.9623 6.2721C60.2105 6.34406 60.4216 6.44539 60.5959 6.57607C60.7701 6.70486 60.9027 6.85638 60.9936 7.03062C61.0864 7.20297 61.1328 7.39047 61.1328 7.59312V10.5818H59.6669V9.96812H59.6328C59.5457 10.131 59.4396 10.2626 59.3146 10.363C59.1915 10.4634 59.0504 10.5363 58.8913 10.5818C58.7341 10.6272 58.5608 10.6499 58.3714 10.6499ZM58.8828 9.6613C59.0021 9.6613 59.1139 9.63668 59.218 9.58744C59.3241 9.53819 59.4103 9.46717 59.4766 9.37437C59.5428 9.28157 59.576 9.16887 59.576 9.0363V8.67266C59.5343 8.68971 59.4898 8.70581 59.4425 8.72096C59.397 8.73611 59.3478 8.75031 59.2947 8.76357C59.2436 8.77683 59.1887 8.78914 59.13 8.8005C59.0731 8.81187 59.0135 8.82228 58.951 8.83175C58.8298 8.85069 58.7303 8.88194 58.6527 8.9255C58.5769 8.96717 58.5201 9.01925 58.4822 9.08175C58.4463 9.14236 58.4283 9.21054 58.4283 9.2863C58.4283 9.40751 58.4709 9.50031 58.5561 9.56471C58.6413 9.6291 58.7502 9.6613 58.8828 9.6613ZM59.7237 5.69539L59.1669 5.07039L58.6101 5.69539H57.3146V5.6613L58.6214 4.36584H59.7123L61.0192 5.6613V5.69539H59.7237ZM59.1101 12.3431C58.898 12.3431 58.7161 12.273 58.5646 12.1329C58.4131 11.9927 58.3373 11.8242 58.3373 11.6272C58.3373 11.4302 58.4131 11.2617 58.5646 11.1215C58.7161 10.9814 58.898 10.9113 59.1101 10.9113C59.3241 10.9113 59.5059 10.9814 59.6555 11.1215C59.807 11.2617 59.8828 11.4302 59.8828 11.6272C59.8828 11.8242 59.807 11.9927 59.6555 12.1329C59.5059 12.273 59.3241 12.3431 59.1101 12.3431Z" fill="#1D2D5F"/>
<path d="M63.4503 8.12721V10.5818H61.8821V6.21812H63.3707V7.04766H63.4162C63.5109 6.77115 63.6776 6.55429 63.9162 6.3971C64.1567 6.2399 64.437 6.1613 64.7571 6.1613C65.0658 6.1613 65.3338 6.23232 65.5611 6.37437C65.7902 6.51452 65.9673 6.7077 66.0923 6.95391C66.2192 7.20013 66.2817 7.48138 66.2798 7.79766V10.5818H64.7116V8.12721C64.7135 7.9113 64.6586 7.74179 64.5469 7.61869C64.437 7.49558 64.2836 7.43403 64.0866 7.43403C63.9579 7.43403 63.8452 7.46244 63.7486 7.51925C63.6539 7.57418 63.581 7.65372 63.5298 7.75789C63.4787 7.86016 63.4522 7.98327 63.4503 8.12721Z" fill="#1D2D5F"/>
<path d="M74.0568 6.94539H72.4545C72.4432 6.81281 72.4129 6.69255 72.3636 6.5846C72.3163 6.47664 72.25 6.38384 72.1648 6.30619C72.0814 6.22664 71.9801 6.16603 71.8608 6.12437C71.7415 6.08081 71.6061 6.05903 71.4545 6.05903C71.1894 6.05903 70.965 6.12342 70.7812 6.25221C70.5994 6.381 70.4612 6.56566 70.3665 6.80619C70.2737 7.04672 70.2273 7.33554 70.2273 7.67266C70.2273 8.02872 70.2746 8.32702 70.3693 8.56755C70.4659 8.80619 70.6051 8.98611 70.7869 9.10732C70.9687 9.22664 71.1875 9.2863 71.4432 9.2863C71.589 9.2863 71.7197 9.26831 71.8352 9.23232C71.9508 9.19444 72.0511 9.14047 72.1364 9.07039C72.2216 9.00031 72.2907 8.91603 72.3437 8.81755C72.3987 8.71717 72.4356 8.60448 72.4545 8.47948L74.0568 8.49085C74.0379 8.73706 73.9687 8.988 73.8494 9.24369C73.7301 9.49747 73.5606 9.73232 73.3409 9.94823C73.1231 10.1622 72.8532 10.3346 72.5312 10.4653C72.2093 10.596 71.8352 10.6613 71.4091 10.6613C70.875 10.6613 70.3958 10.5467 69.9716 10.3175C69.5492 10.0884 69.215 9.75126 68.9687 9.30619C68.7244 8.86111 68.6023 8.3166 68.6023 7.67266C68.6023 7.02494 68.7273 6.47948 68.9773 6.0363C69.2273 5.59122 69.5644 5.25505 69.9886 5.02778C70.4129 4.79861 70.8864 4.68403 71.4091 4.68403C71.7765 4.68403 72.1146 4.73422 72.4233 4.83459C72.732 4.93497 73.0028 5.08175 73.2358 5.27494C73.4687 5.46622 73.6562 5.70202 73.7983 5.98232C73.9403 6.26263 74.0265 6.58365 74.0568 6.94539Z" fill="#1D2D5F"/>
<path d="M76.0121 10.6499C75.7337 10.6499 75.4874 10.6045 75.2734 10.5136C75.0613 10.4208 74.8946 10.2806 74.7734 10.0931C74.6522 9.90562 74.5916 9.66698 74.5916 9.37721C74.5916 9.13857 74.6323 8.93497 74.7138 8.76641C74.7952 8.59596 74.9088 8.45675 75.0547 8.3488C75.2005 8.24085 75.37 8.15846 75.5632 8.10164C75.7583 8.04482 75.9685 8.00789 76.1939 7.99085C76.4382 7.97191 76.6342 7.94918 76.782 7.92266C76.9316 7.89425 77.0395 7.85543 77.1058 7.80619C77.1721 7.75505 77.2052 7.68781 77.2052 7.60448V7.59312C77.2052 7.47948 77.1617 7.39236 77.0746 7.33175C76.9874 7.27115 76.8757 7.24085 76.7393 7.24085C76.5897 7.24085 76.4676 7.27399 76.3729 7.34028C76.2801 7.40467 76.2242 7.5041 76.2052 7.63857H74.7621C74.781 7.37342 74.8653 7.1291 75.0149 6.90562C75.1664 6.68024 75.3871 6.50031 75.6768 6.36585C75.9666 6.22948 76.3284 6.1613 76.7621 6.1613C77.0746 6.1613 77.3549 6.19823 77.603 6.2721C77.8511 6.34406 78.0623 6.44539 78.2365 6.57607C78.4107 6.70486 78.5433 6.85638 78.6342 7.03062C78.727 7.20297 78.7734 7.39047 78.7734 7.59312V10.5818H77.3075V9.96812H77.2734C77.1863 10.131 77.0802 10.2626 76.9552 10.363C76.8321 10.4634 76.691 10.5363 76.532 10.5818C76.3748 10.6272 76.2015 10.6499 76.0121 10.6499ZM76.5234 9.6613C76.6427 9.6613 76.7545 9.63668 76.8587 9.58744C76.9647 9.53819 77.0509 9.46717 77.1172 9.37437C77.1835 9.28157 77.2166 9.16887 77.2166 9.0363V8.67266C77.1749 8.68971 77.1304 8.70581 77.0831 8.72096C77.0376 8.73611 76.9884 8.75031 76.9354 8.76357C76.8842 8.77683 76.8293 8.78914 76.7706 8.8005C76.7138 8.81187 76.6541 8.82228 76.5916 8.83175C76.4704 8.85069 76.371 8.88194 76.2933 8.9255C76.2176 8.96717 76.1607 9.01925 76.1229 9.08175C76.0869 9.14236 76.0689 9.21054 76.0689 9.2863C76.0689 9.40751 76.1115 9.50031 76.1967 9.56471C76.282 9.6291 76.3909 9.6613 76.5234 9.6613Z" fill="#1D2D5F"/>
<path d="M79.5227 10.5818V6.21812H81.0454V7.04766H81.0909C81.1704 6.74084 81.2964 6.51641 81.4687 6.37437C81.643 6.23232 81.8466 6.1613 82.0795 6.1613C82.1477 6.1613 82.215 6.16698 82.2812 6.17835C82.3494 6.18781 82.4148 6.20202 82.4773 6.22096V7.55903C82.3996 7.53251 82.304 7.51263 82.1903 7.49937C82.0767 7.48611 81.9792 7.47948 81.8977 7.47948C81.7443 7.47948 81.6061 7.51452 81.4829 7.5846C81.3617 7.65278 81.2661 7.74937 81.196 7.87437C81.1259 7.99747 81.0909 8.14236 81.0909 8.30903V10.5818H79.5227Z" fill="#1D2D5F"/>
<path d="M82.9915 12.2181V6.21812H84.5483V6.97948H84.5824C84.6392 6.83175 84.7225 6.69634 84.8324 6.57323C84.9422 6.44823 85.0786 6.3488 85.2415 6.27494C85.4044 6.19918 85.5937 6.1613 85.8097 6.1613C86.0975 6.1613 86.3712 6.238 86.6307 6.39141C86.892 6.54482 87.1042 6.7863 87.267 7.11585C87.4318 7.44539 87.5142 7.87342 87.5142 8.39994C87.5142 8.90372 87.4356 9.32134 87.2784 9.65278C87.1231 9.98422 86.9148 10.2314 86.6534 10.3943C86.3939 10.5571 86.1089 10.6386 85.7983 10.6386C85.5937 10.6386 85.411 10.6054 85.25 10.5391C85.0909 10.471 84.9545 10.3791 84.8409 10.2636C84.7292 10.1461 84.643 10.0136 84.5824 9.86585H84.5597V12.2181H82.9915ZM84.5256 8.39994C84.5256 8.61206 84.553 8.79577 84.6079 8.95107C84.6648 9.10448 84.7443 9.2238 84.8466 9.30903C84.9507 9.39236 85.0748 9.43403 85.2187 9.43403C85.3627 9.43403 85.4848 9.39331 85.5852 9.31187C85.6875 9.22853 85.7651 9.11016 85.8182 8.95675C85.8731 8.80145 85.9006 8.61585 85.9006 8.39994C85.9006 8.18403 85.8731 7.99937 85.8182 7.84596C85.7651 7.69066 85.6875 7.57228 85.5852 7.49085C85.4848 7.40751 85.3627 7.36585 85.2187 7.36585C85.0748 7.36585 84.9507 7.40751 84.8466 7.49085C84.7443 7.57228 84.6648 7.69066 84.6079 7.84596C84.553 7.99937 84.5256 8.18403 84.5256 8.39994Z" fill="#1D2D5F"/>
<path d="M89.7393 4.76357V10.5818H88.1712V4.76357H89.7393Z" fill="#1D2D5F"/>
<path d="M91.7543 10.6499C91.4758 10.6499 91.2296 10.6045 91.0156 10.5136C90.8035 10.4208 90.6368 10.2806 90.5156 10.0931C90.3944 9.90562 90.3338 9.66698 90.3338 9.37721C90.3338 9.13857 90.3745 8.93497 90.456 8.76641C90.5374 8.59596 90.651 8.45675 90.7969 8.3488C90.9427 8.24085 91.1122 8.15846 91.3054 8.10164C91.5005 8.04482 91.7107 8.00789 91.9361 7.99085C92.1804 7.97191 92.3764 7.94918 92.5241 7.92266C92.6738 7.89425 92.7817 7.85543 92.848 7.80619C92.9143 7.75505 92.9474 7.68781 92.9474 7.60448V7.59312C92.9474 7.47948 92.9039 7.39236 92.8168 7.33175C92.7296 7.27115 92.6179 7.24085 92.4815 7.24085C92.3319 7.24085 92.2097 7.27399 92.1151 7.34028C92.0222 7.40467 91.9664 7.5041 91.9474 7.63857H90.5043C90.5232 7.37342 90.6075 7.1291 90.7571 6.90562C90.9086 6.68024 91.1293 6.50031 91.419 6.36585C91.7088 6.22948 92.0705 6.1613 92.5043 6.1613C92.8168 6.1613 93.0971 6.19823 93.3452 6.2721C93.5933 6.34406 93.8044 6.44539 93.9787 6.57607C94.1529 6.70486 94.2855 6.85638 94.3764 7.03062C94.4692 7.20297 94.5156 7.39047 94.5156 7.59312V10.5818H93.0497V9.96812H93.0156C92.9285 10.131 92.8224 10.2626 92.6974 10.363C92.5743 10.4634 92.4332 10.5363 92.2741 10.5818C92.1169 10.6272 91.9436 10.6499 91.7543 10.6499ZM92.2656 9.6613C92.3849 9.6613 92.4967 9.63668 92.6008 9.58744C92.7069 9.53819 92.7931 9.46717 92.8594 9.37437C92.9257 9.28157 92.9588 9.16887 92.9588 9.0363V8.67266C92.9171 8.68971 92.8726 8.70581 92.8253 8.72096C92.7798 8.73611 92.7306 8.75031 92.6776 8.76357C92.6264 8.77683 92.5715 8.78914 92.5128 8.8005C92.456 8.81187 92.3963 8.82228 92.3338 8.83175C92.2126 8.85069 92.1132 8.88194 92.0355 8.9255C91.9597 8.96717 91.9029 9.01925 91.8651 9.08175C91.8291 9.14236 91.8111 9.21054 91.8111 9.2863C91.8111 9.40751 91.8537 9.50031 91.9389 9.56471C92.0241 9.6291 92.133 9.6613 92.2656 9.6613Z" fill="#1D2D5F"/>
</svg>
