<svg width="24" height="25" viewBox="0 0 24 25" fill="none" xmlns="http://www.w3.org/2000/svg">
<path d="M9.98742 0C10.3451 0 10.7027 0 11.0603 0C11.2546 0.0404611 11.4475 0.101153 11.643 0.118686C17.5341 0.667609 21.9102 6.44951 20.9016 12.3231C20.5949 14.1088 19.8889 15.7043 18.7651 17.2459C20.3069 18.7686 21.8406 20.2724 23.3609 21.7897C23.9798 22.4074 24.1927 23.1721 23.8056 23.7965C23.5538 24.2039 23.0917 24.4817 22.7246 24.8175H21.9196C21.4736 24.4588 20.994 24.1337 20.5868 23.7345C19.2755 22.4492 17.9815 21.1436 16.7023 19.826C16.4156 19.5306 16.2027 19.4928 15.8504 19.714C14.5417 20.5354 13.0991 20.9926 11.5707 21.1517C6.07208 21.7195 1.14141 17.8973 0.152863 12.3164C-0.780763 7.03754 2.65637 1.73443 7.89245 0.400565C8.58095 0.225234 9.2882 0.130824 9.98742 0ZM2.86935 10.5347C2.82783 14.8074 6.20469 18.2938 10.4294 18.3397C14.6636 18.3855 18.1396 14.9693 18.1784 10.7222C18.2173 6.43467 14.8792 2.99547 10.6156 2.92939C6.38016 2.86465 2.91088 6.27148 2.86935 10.5347Z" fill="#1B2C5D"/>
<path d="M2.86937 10.5347C2.91089 6.27141 6.38018 2.86458 10.6157 2.92932C14.8793 2.9954 18.2173 6.4346 18.1784 10.7221C18.1396 14.9692 14.6649 18.3868 10.4295 18.3396C6.2047 18.2938 2.82784 14.8074 2.86937 10.5347ZM13.1794 14.0629C13.1902 14.191 13.2102 14.28 13.2022 14.3663C13.1486 14.9233 13.3589 15.2039 13.9523 15.2039C14.5096 15.2039 14.8551 15.0731 14.831 14.4135C14.8243 14.2193 14.9851 13.9712 15.1405 13.8255C15.7673 13.2388 16.1169 12.5402 16.0366 11.6743C15.9937 11.2158 15.8705 10.7653 15.7767 10.2744C16.2496 10.184 16.5509 9.9264 16.4331 9.39636C16.2321 8.49272 15.5155 9.22912 15.048 8.93645C14.7734 8.29986 14.464 7.60663 14.176 6.9026C13.9537 6.35907 13.5465 6.09473 12.9839 6.09068C11.2439 6.07989 9.50253 6.08124 7.76253 6.09068C7.19459 6.09338 6.7914 6.36851 6.57574 6.90935C6.36812 7.4286 6.12032 7.93436 5.94752 8.46575C5.79482 8.9351 5.55773 9.08211 5.06212 8.99174C4.86789 8.95668 4.45131 9.19135 4.43657 9.33297C4.41246 9.58518 4.58928 9.87784 4.7393 10.1179C4.80359 10.2218 5.00854 10.2366 5.17195 10.3C5.08623 10.5333 5.0005 10.737 4.93754 10.9487C4.63884 11.9508 4.76207 12.8841 5.53764 13.6138C5.84036 13.8983 6.02923 14.1371 5.98904 14.5632C5.94886 14.9786 6.19801 15.1607 6.59717 15.1971C7.38748 15.2673 7.49999 15.158 7.65671 14.0642H13.1794V14.0629Z" fill="#FFDD00"/>
<path d="M13.1794 14.0618H7.6567C7.49998 15.1556 7.38747 15.2648 6.59717 15.1947C6.198 15.1596 5.94885 14.9762 5.98904 14.5608C6.03056 14.1332 5.84035 13.8959 5.53763 13.6113C4.76206 12.8803 4.63749 11.947 4.93753 10.9463C5.00049 10.7359 5.08756 10.5322 5.17195 10.2975C5.00719 10.2328 4.80359 10.2179 4.73929 10.1154C4.59061 9.87538 4.41245 9.58271 4.43656 9.3305C4.44996 9.18889 4.86788 8.95421 5.06211 8.98928C5.55772 9.07964 5.79347 8.93263 5.94751 8.46328C6.12031 7.9319 6.36811 7.42613 6.57573 6.90688C6.79139 6.36605 7.19324 6.09091 7.76252 6.08822C9.50252 6.08012 11.2439 6.07877 12.9839 6.08822C13.5465 6.09091 13.9537 6.35661 14.176 6.90014C14.464 7.60281 14.7748 8.29739 15.048 8.93398C15.5155 9.2253 16.2321 8.49026 16.4331 9.39389C16.5509 9.92393 16.2495 10.1829 15.7767 10.2719C15.8705 10.7628 15.9937 11.2133 16.0366 11.6719C16.1169 12.5377 15.7673 13.2364 15.1404 13.823C14.9851 13.9687 14.8243 14.2169 14.831 14.4111C14.8551 15.0719 14.5082 15.2014 13.9523 15.2014C13.3589 15.2014 13.1486 14.9209 13.2022 14.3639C13.2102 14.2776 13.1901 14.1885 13.1794 14.0604V14.0618ZM6.47259 9.26442H14.3073C14.018 8.56983 13.7835 7.91841 13.4714 7.30744C13.3763 7.12267 13.0709 6.94195 12.8593 6.9379C11.2104 6.90823 9.56146 6.90958 7.91255 6.93655C7.71162 6.93925 7.41694 7.093 7.33255 7.26024C7.01509 7.89278 6.76728 8.56039 6.47393 9.26307L6.47259 9.26442ZM6.76996 12.1372C6.87176 12.1399 6.97356 12.1439 7.07536 12.1466C7.26557 11.8944 7.57098 11.6624 7.6192 11.3859C7.69287 10.9611 7.38345 10.601 6.95347 10.69C6.68825 10.7453 6.34132 11.0919 6.30248 11.3482C6.26765 11.5815 6.59984 11.8715 6.76996 12.1358V12.1372ZM14.5216 11.5397L14.535 11.2308C14.2859 11.0407 14.0568 10.7385 13.7809 10.6873C13.3549 10.6077 13.0696 10.8977 13.0669 11.3576C13.0642 11.7838 13.3174 12.0751 13.7233 12.0117C14.0072 11.9672 14.2564 11.7056 14.5216 11.541V11.5397Z" fill="#1B2C5D"/>
<path d="M6.47259 9.26566C6.76728 8.56298 7.01509 7.89537 7.33121 7.26283C7.41559 7.09424 7.71028 6.94184 7.91121 6.93914C9.56012 6.91351 11.209 6.91082 12.858 6.94049C13.0709 6.94453 13.3763 7.12391 13.4701 7.31003C13.7822 7.921 14.0166 8.57107 14.3059 9.267H6.47125L6.47259 9.26566Z" fill="#FFDD00"/>
<path d="M6.7686 12.1369C6.59849 11.8726 6.2663 11.5826 6.30112 11.3493C6.33997 11.093 6.6869 10.7451 6.95212 10.6911C7.38209 10.6021 7.69285 10.9622 7.61784 11.387C7.56962 11.6635 7.26422 11.8955 7.07401 12.1477C6.97221 12.145 6.87041 12.141 6.7686 12.1383V12.1369Z" fill="#FFDD00"/>
<path d="M14.5203 11.5397C14.255 11.7042 14.0059 11.9659 13.7219 12.0104C13.3147 12.0737 13.0615 11.7824 13.0656 11.3562C13.0682 10.8963 13.3549 10.6064 13.7795 10.6859C14.0541 10.7372 14.2832 11.0393 14.5337 11.2295L14.5203 11.5383V11.5397Z" fill="#FFDD00"/>
</svg>
