<svg width="30" height="31" viewBox="0 0 30 31" fill="none" xmlns="http://www.w3.org/2000/svg">
<path d="M19.7979 16.5392C20.1706 16.5473 20.4927 16.2349 20.4996 15.8587C20.5071 15.4525 20.208 15.1378 19.8123 15.1355C19.4304 15.1332 19.1233 15.4364 19.1187 15.8196C19.1141 16.2125 19.4149 16.5306 19.7979 16.5392Z" fill="#FED372"/>
<path d="M19.8106 16.8984C19.4143 16.8984 19.1204 17.1992 19.1193 17.6146C19.117 18.4234 19.117 19.2323 19.1193 20.0411C19.1204 20.4513 19.4224 20.7654 19.8089 20.766C20.1954 20.7666 20.4979 20.4525 20.5008 20.0429C20.5037 19.6413 20.5008 19.2398 20.5008 18.8382C20.5008 18.4367 20.5031 18.0242 20.5008 17.6169C20.4979 17.201 20.2057 16.8989 19.8112 16.8984H19.8106Z" fill="#FED372"/>
<path d="M15 0.064209C6.71599 0.064209 0 6.7818 0 15.0684C0 23.3549 6.71599 30.0719 15 30.0719C23.284 30.0719 30 23.3543 30 15.0684C30 6.78237 23.2846 0.064209 15 0.064209ZM10.5627 7.92056C10.5679 7.61919 10.7755 7.39949 11.0728 7.38396C11.2953 7.37246 11.5195 7.38511 11.7421 7.37476C11.7915 7.37246 11.8657 7.3276 11.8824 7.28446C12.1532 6.57532 12.6523 6.14397 13.3917 5.99788C13.4067 5.99501 13.4193 5.98178 13.4331 5.97315H13.9892C14.0817 6.00019 14.1749 6.02434 14.2669 6.05482C14.8683 6.25382 15.2852 6.65296 15.5106 7.2488C15.5486 7.34888 15.5928 7.38511 15.6963 7.38109C15.8976 7.37361 16.0994 7.37418 16.3007 7.38109C16.625 7.39144 16.8371 7.59331 16.844 7.91654C16.8521 8.29555 16.8578 8.67629 16.836 9.05473C16.798 9.70694 16.2719 10.1975 15.6279 10.1987C14.3479 10.201 13.068 10.201 11.7881 10.1987C11.1216 10.1975 10.5834 9.66898 10.5639 8.99377C10.5535 8.63661 10.557 8.27887 10.5627 7.92114V7.92056ZM14.6648 14.8285C14.5986 14.9177 14.5394 14.9562 14.429 14.9562C13.1048 14.9522 11.7812 14.9533 10.4569 14.9539C10.1907 14.9539 9.99118 15.0787 9.90838 15.2915C9.77038 15.6458 10.028 16.007 10.4288 16.0104C10.99 16.015 11.5512 16.0116 12.1124 16.0116C12.7063 16.0116 13.3003 16.0116 13.8937 16.0116H14.0605C13.9863 16.2986 13.9156 16.5735 13.8448 16.8484C13.8437 16.8536 13.8408 16.8587 13.8397 16.8639C13.8121 16.9859 13.8224 17.1653 13.7477 17.2153C13.6511 17.2797 13.4866 17.2458 13.3515 17.2458C12.3981 17.247 11.4448 17.2435 10.4909 17.2504C10.3655 17.2516 10.2264 17.2774 10.1177 17.3367C9.91298 17.4483 9.83248 17.6875 9.89286 17.9032C9.95898 18.1413 10.1476 18.2926 10.3966 18.2931C11.4316 18.2954 12.4671 18.2943 13.5021 18.2943H13.7149C13.7402 19.1581 13.9351 19.9725 14.2933 20.7656H14.0938C12.65 20.7656 11.2062 20.7656 9.76234 20.7656C8.75839 20.7656 8.02296 20.1652 7.80677 19.1719C7.80217 19.1518 7.78779 19.134 7.77802 19.115V9.73742C7.88956 9.46653 7.96144 9.16861 8.12129 8.92993C8.52666 8.32258 9.11891 8.05572 9.86986 8.08908C9.86986 8.35939 9.85376 8.62741 9.87446 8.89254C9.89401 9.14215 9.92046 9.39924 9.99981 9.63389C10.2563 10.3902 10.9664 10.8934 11.7587 10.8963C13.0554 10.9015 14.352 10.9026 15.6486 10.8963C16.6457 10.8917 17.4621 10.1159 17.526 9.11167C17.5472 8.77809 17.5294 8.44221 17.5294 8.09713C18.0895 8.04882 18.5633 8.20296 18.9686 8.55494C19.4005 8.92935 19.6247 9.41534 19.6374 9.9876C19.6512 10.6145 19.6408 11.242 19.6408 11.8694C19.6408 11.8965 19.6362 11.9229 19.6328 11.9563C19.3775 11.985 19.1245 12.0086 18.8732 12.0426C18.27 12.1237 17.7025 12.3238 17.1511 12.5786C17.0326 12.6332 16.8935 12.6677 16.7641 12.6683C14.6613 12.6735 12.558 12.6718 10.4552 12.6723C10.1568 12.6723 9.96991 12.8017 9.89631 13.0542C9.81293 13.3401 9.99866 13.6512 10.2885 13.703C10.3736 13.7179 10.4621 13.7185 10.5489 13.7191C12.1342 13.7202 13.7201 13.7197 15.3053 13.7197H15.5313C15.4899 13.7726 15.4663 13.8031 15.4422 13.8335C15.1823 14.1648 14.9166 14.4921 14.6653 14.8297L14.6648 14.8285ZM19.8058 22.8781C17.2074 22.8775 15.1018 20.7495 15.1018 18.1246C15.1018 15.4986 17.2063 13.3706 19.8041 13.37C22.4129 13.3688 24.518 15.4957 24.5162 18.1309C24.5145 20.7541 22.4066 22.8787 19.8058 22.8781Z" fill="#FED372"/>
</svg>
