<svg width="30" height="31" viewBox="0 0 30 31" fill="none" xmlns="http://www.w3.org/2000/svg">
<path d="M16.1459 10.8468C16.0028 10.3464 15.5399 9.99677 15.0195 9.99677H10.6225C10.1021 9.99677 9.63924 10.3464 9.49606 10.8468L9.01997 12.5136H16.622L16.1459 10.8468Z" fill="#FED372"/>
<path d="M15 0.064209C6.71542 0.064209 0 6.78179 0 15.0683C0 23.3549 6.716 30.0725 15 30.0725C23.284 30.0725 30 23.3549 30 15.0683C30 6.78179 23.284 0.064209 15 0.064209ZM7.33181 17.2119V13.4286H7.14609C6.76717 13.4286 6.46012 13.1215 6.46012 12.7425C6.46012 12.3635 6.76717 12.0564 7.14609 12.0564H7.72397L8.17706 10.4701C8.48928 9.37795 9.48748 8.62453 10.6231 8.62453H15.0201C16.1557 8.62453 17.1539 9.37738 17.4662 10.4701L17.9193 12.0564H18.4977C18.8766 12.0564 19.1837 12.3635 19.1837 12.7425C19.1837 13.1215 18.8766 13.4286 18.4977 13.4286H18.3114V17.2119C18.3114 17.7761 17.8543 18.2333 17.2902 18.2333H16.5876C16.0235 18.2333 15.5664 17.7761 15.5664 17.2119V16.8605H10.0769V17.2119C10.0769 17.7761 9.61973 18.2333 9.05566 18.2333H8.35301C7.78894 18.2333 7.33181 17.7761 7.33181 17.2119ZM24.1465 17.4885H23.322C23.0477 19.2519 22.226 20.8784 20.9403 22.1644C19.3384 23.7667 17.208 24.6495 14.9425 24.6495C12.0658 24.6495 9.40871 23.2094 7.83436 20.7973C7.57849 20.405 7.68889 19.8794 8.08104 19.6234C8.47319 19.3675 8.99873 19.4779 9.25461 19.8702C10.5144 21.8009 12.6408 22.9535 14.9425 22.9535C16.7555 22.9535 18.4592 22.2472 19.7414 20.9652C20.7057 20.0007 21.3434 18.7975 21.601 17.4891H21.0076C20.516 17.4891 20.2693 16.8944 20.6172 16.5464L22.1409 15.0223C22.3818 14.7814 22.7728 14.7814 23.0138 15.0223L24.5375 16.5464C24.8854 16.8944 24.6387 17.4891 24.1471 17.4891L24.1465 17.4885ZM24.5559 11.3541C24.5404 11.3564 24.5249 11.3581 24.5093 11.361C23.69 11.4933 23.0437 12.1398 22.9114 12.9593C22.9091 12.9749 22.9068 12.9904 22.9045 13.0059C22.8712 13.1566 22.7372 13.2699 22.5762 13.2699C22.4152 13.2699 22.2812 13.1572 22.2479 13.0059C22.2456 12.9904 22.2438 12.9749 22.241 12.9593C22.1087 12.1398 21.4618 11.4933 20.643 11.361C20.6275 11.3587 20.612 11.3564 20.5965 11.3541C20.4458 11.3208 20.3331 11.1868 20.3331 11.0263C20.3331 10.8653 20.4458 10.7312 20.5965 10.6979C20.612 10.6956 20.6275 10.6939 20.643 10.691C21.4624 10.5587 22.1087 9.91226 22.241 9.09269C22.2433 9.07716 22.2456 9.06163 22.2479 9.0461C22.2812 8.89542 22.4152 8.78211 22.5762 8.78211C22.7372 8.78211 22.8712 8.89484 22.9045 9.0461C22.9068 9.06163 22.9085 9.07716 22.9114 9.09269C23.0437 9.91226 23.69 10.5587 24.5093 10.691C24.5249 10.6933 24.5404 10.6956 24.5559 10.6979C24.7066 10.7312 24.8198 10.8653 24.8198 11.0257C24.8198 11.1862 24.7071 11.3208 24.5559 11.3541Z" fill="#FED372"/>
<path d="M9.23061 15.8314C9.60957 15.8314 9.91677 15.5241 9.91677 15.1451C9.91677 14.766 9.60957 14.4587 9.23061 14.4587C8.85165 14.4587 8.54445 14.766 8.54445 15.1451C8.54445 15.5241 8.85165 15.8314 9.23061 15.8314Z" fill="#FED372"/>
<path d="M16.4118 15.8314C16.7907 15.8314 17.0979 15.5241 17.0979 15.1451C17.0979 14.766 16.7907 14.4587 16.4118 14.4587C16.0328 14.4587 15.7256 14.766 15.7256 15.1451C15.7256 15.5241 16.0328 15.8314 16.4118 15.8314Z" fill="#FED372"/>
<path d="M14.3517 14.8015H11.2913C11.1015 14.8015 10.9479 14.9551 10.9479 15.145C10.9479 15.3348 11.1015 15.4884 11.2913 15.4884H14.3517C14.5415 15.4884 14.6951 15.3348 14.6951 15.145C14.6951 14.9551 14.5415 14.8015 14.3517 14.8015Z" fill="#FED372"/>
</svg>
