<svg width="30" height="31" viewBox="0 0 30 31" fill="none" xmlns="http://www.w3.org/2000/svg">
<path d="M15 0.064209C6.7157 0.064209 0 6.7815 0 15.0678C0 23.354 6.7157 30.0713 15 30.0713C23.2843 30.0713 30 23.354 30 15.0678C30 6.7815 23.2849 0.064209 15 0.064209ZM18.9784 20.7218L15.0287 23.0023C14.927 23.0609 14.8018 23.0609 14.7001 23.0023L10.7504 20.7218C9.46909 19.9822 8.67962 18.6149 8.68019 17.135V9.31026C8.68019 9.0706 8.87037 8.87462 9.11055 8.86657C10.7366 8.81083 12.2828 8.44128 13.6911 7.81657C14.4369 7.48553 15.293 7.48553 16.0388 7.81657C17.4471 8.44128 18.9933 8.8114 20.6194 8.86657C20.859 8.87462 21.0492 9.0706 21.0492 9.31026V17.135C21.0492 18.6149 20.2597 19.9822 18.979 20.7218H18.9784Z" fill="#FED372"/>
<path d="M14.8644 11.566C12.7913 11.566 11.1101 13.247 11.1101 15.3212C11.1101 17.3953 12.7907 19.0764 14.8644 19.0764C16.9381 19.0764 18.6187 17.3953 18.6187 15.3212C18.6187 13.247 16.9381 11.566 14.8644 11.566ZM17.2926 14.6183L14.9661 16.9453C14.8391 17.0723 14.6719 17.1361 14.5053 17.1361C14.3387 17.1361 14.1714 17.0723 14.0445 16.9453L12.8809 15.7815C12.6264 15.5269 12.6264 15.1143 12.8809 14.8597C13.1355 14.6051 13.548 14.6051 13.8026 14.8597L14.5053 15.5625L16.3709 13.6964C16.6255 13.4418 17.038 13.4418 17.2926 13.6964C17.5471 13.951 17.5471 14.3637 17.2926 14.6183Z" fill="#FED372"/>
</svg>
