<svg width="30" height="31" viewBox="0 0 30 31" fill="none" xmlns="http://www.w3.org/2000/svg">
<path d="M15.0003 0.064209C6.71588 0.064209 0 6.78168 0 15.0681C0 23.3544 6.71588 30.0713 15.0003 30.0713C23.2847 30.0713 30 23.3539 30 15.0681C30 6.78226 23.2841 0.064209 15.0003 0.064209ZM23.9929 15.5492C23.6888 15.8528 23.2853 16.0205 22.8557 16.0205C22.4261 16.0205 22.022 15.8534 21.7179 15.5492L20.6876 14.5187C20.6668 14.5285 20.6448 14.5372 20.6234 14.5464L21.0293 15.9679H21.7879C22.2851 15.9679 22.688 16.371 22.688 16.8683C22.688 17.3656 22.2851 17.7687 21.7879 17.7687H21.5439V22.7305C21.5439 23.4701 20.9443 24.0704 20.2043 24.0704H19.2827C18.5432 24.0704 17.9431 23.4707 17.9431 22.7305V22.2696H10.7433V22.7305C10.7433 23.4701 10.1438 24.0704 9.40431 24.0704H8.48272C7.74326 24.0704 7.14313 23.4707 7.14313 22.7305V17.7687H6.89915C6.40193 17.7687 5.99896 17.3656 5.99896 16.8683C5.99896 16.371 6.40193 15.9679 6.89915 15.9679H7.65711L8.25146 13.8872C8.6608 12.4547 9.96974 11.467 11.4597 11.467H14.2001C14.0995 11.083 14.0469 10.6834 14.0469 10.2757C14.0469 9.0272 14.5331 7.85326 15.416 6.9702C16.2988 6.08715 17.4725 5.6008 18.7207 5.6008C19.969 5.6008 21.1426 6.08715 22.0255 6.9702C22.9083 7.85326 23.3946 9.0272 23.3946 10.2757C23.3946 10.9668 23.2454 11.6341 22.9632 12.2431L23.9935 13.2736C24.6208 13.9011 24.6208 14.9218 23.9935 15.5498L23.9929 15.5492Z" fill="#FED372"/>
<path d="M15.4166 13.582C15.316 13.4814 15.2206 13.3762 15.1304 13.268H11.4602C10.778 13.268 10.1704 13.7266 9.98305 14.3824L9.35864 16.5683H19.329L18.8659 14.9468C18.8179 14.9485 18.7699 14.9509 18.7213 14.9509C17.4731 14.9509 16.2994 14.4645 15.4166 13.5815V13.582Z" fill="#FED372"/>
<path d="M9.63521 19.119C9.13787 19.119 8.7348 19.5222 8.7348 20.0196C8.7348 20.5171 9.13787 20.9203 9.63521 20.9203C10.1325 20.9203 10.5356 20.5171 10.5356 20.0196C10.5356 19.5222 10.1325 19.119 9.63521 19.119Z" fill="#FED372"/>
<path d="M18.153 20.0196C18.153 20.5171 18.5561 20.9203 19.0534 20.9203C19.5507 20.9203 19.9538 20.5171 19.9538 20.0196C19.9538 19.5222 19.5507 19.119 19.0534 19.119C18.5561 19.119 18.153 19.5222 18.153 20.0196Z" fill="#FED372"/>
<path d="M16.3513 19.569H12.338C12.0893 19.569 11.8881 19.7708 11.8881 20.019C11.8881 20.2671 12.0893 20.469 12.338 20.469H16.3513C16.6 20.469 16.8013 20.2677 16.8013 20.019C16.8013 19.7703 16.6 19.569 16.3513 19.569Z" fill="#FED372"/>
<path d="M15.7068 8.83215V9.34233H16.2712V11.4675H16.8738V8.83215H15.7068Z" fill="#FED372"/>
<path d="M16.8742 11.4671H16.2711V11.7308H16.8742V11.4671Z" fill="#FED372"/>
<path d="M19.2063 11.2974C19.2942 11.1482 19.3387 10.9793 19.3387 10.7896C19.3387 10.616 19.2988 10.4593 19.2201 10.3205C19.1409 10.1816 19.0322 10.0723 18.8934 9.99191C18.7546 9.91151 18.5956 9.87102 18.4169 9.87102C18.4007 9.87102 18.3851 9.8716 18.3695 9.87275L19.1831 8.83215H18.4631L17.6576 9.87102C17.5489 10.011 17.4667 10.1354 17.4124 10.2447C17.358 10.3534 17.3216 10.4535 17.3037 10.5443C17.2857 10.6351 17.2765 10.7259 17.2765 10.8168C17.2765 10.9984 17.3204 11.1621 17.4089 11.3073C17.4488 11.3732 17.4968 11.4316 17.5506 11.4848C17.9074 11.5195 18.2509 11.6098 18.569 11.7503C18.6673 11.7289 18.7587 11.6965 18.8425 11.6497C18.9969 11.5641 19.1178 11.4467 19.2063 11.2974ZM18.6771 11.025C18.6384 11.0909 18.5869 11.1424 18.5233 11.1789C18.4597 11.2153 18.388 11.2332 18.3076 11.2332C18.2272 11.2332 18.1584 11.2153 18.0936 11.1789C18.0289 11.1424 17.9768 11.0915 17.9381 11.025C17.8993 10.959 17.8796 10.8827 17.8796 10.7971C17.8796 10.7115 17.8993 10.6328 17.9381 10.5692C17.9768 10.5056 18.0289 10.4558 18.0936 10.4194C18.1584 10.3829 18.2295 10.365 18.3076 10.365C18.3857 10.365 18.4597 10.3829 18.5233 10.4194C18.5869 10.4558 18.6384 10.5056 18.6771 10.5692C18.7159 10.6328 18.7355 10.7086 18.7355 10.7971C18.7355 10.8856 18.7159 10.9585 18.6771 11.025Z" fill="#FED372"/>
<path d="M17.7749 11.6511C17.9305 11.7355 18.108 11.7777 18.3081 11.7777C18.4006 11.7777 18.4874 11.7679 18.5695 11.75C18.2509 11.61 17.9079 11.5192 17.5511 11.4845C17.6159 11.5487 17.6905 11.6054 17.7755 11.6511H17.7749Z" fill="#FED372"/>
<path d="M20.1316 11.5912C20.3068 11.7156 20.5098 11.778 20.7405 11.778C20.9713 11.778 21.1783 11.715 21.3535 11.5895C21.5287 11.4639 21.6646 11.2887 21.7618 11.0642C21.8589 10.8398 21.9075 10.5784 21.9075 10.2805C21.9075 9.98257 21.8589 9.72054 21.7618 9.49669C21.6646 9.27226 21.5282 9.09757 21.3535 8.97321C21.1783 8.84885 20.973 8.78638 20.737 8.78638C20.5011 8.78638 20.3033 8.84885 20.1281 8.97321C19.9529 9.09757 19.817 9.27168 19.7198 9.49438C19.6227 9.71765 19.5741 9.97968 19.5741 10.2805C19.5741 10.5813 19.6233 10.841 19.7221 11.0666C19.8204 11.2921 19.9575 11.4674 20.1327 11.5918L20.1316 11.5912ZM20.2426 9.76798C20.2866 9.62684 20.3502 9.51809 20.4334 9.4429C20.5161 9.3677 20.6173 9.3301 20.737 9.3301C20.8568 9.3301 20.962 9.3677 21.0464 9.4429C21.1309 9.51809 21.1951 9.62626 21.239 9.76798C21.283 9.90969 21.3049 10.0798 21.3049 10.2799C21.3049 10.48 21.283 10.6507 21.239 10.7935C21.1951 10.9364 21.1314 11.0452 21.0482 11.1203C20.9649 11.1955 20.8637 11.2331 20.7446 11.2331C20.6254 11.2331 20.5196 11.195 20.4352 11.1186C20.3507 11.0423 20.2866 10.9324 20.2426 10.7901C20.1987 10.6472 20.1767 10.4777 20.1767 10.2805C20.1767 10.0832 20.1987 9.91027 20.2426 9.76855V9.76798Z" fill="#FED372"/>
</svg>
